<?xml version="1.0" encoding="utf-8"?><!-- Uploaded to: SVG Repo, www.svgrepo.com, Generator: SVG Repo Mixer Tools -->
<svg width="24px" height="24px" viewBox="0 0 24 24" fill="none" xmlns="http://www.w3.org/2000/svg">
<path fill-rule="evenodd" clip-rule="evenodd" d="M12 2C6.47715 2 2 6.47715 2 12C2 17.5228 6.47715 22 12 22C17.5228 22 22 17.5228 22 12C22 6.47715 17.5228 2 12 2ZM16.6402 8.2318C17.0645 8.58537 17.1218 9.21593 16.7682 9.64021L11.7682 15.6402C11.5937 15.8497 11.3411 15.9788 11.0691 15.9976C10.797 16.0165 10.5291 15.9234 10.3273 15.74L7.32733 13.0127C6.91868 12.6412 6.88856 12.0087 7.26007 11.6001C7.63157 11.1914 8.26402 11.1613 8.67268 11.5328L10.9002 13.5578L15.2318 8.35984C15.5854 7.93556 16.2159 7.87824 16.6402 8.2318Z" fill="#27bd33"/>
</svg>