<?xml version="1.0" ?><!-- Uploaded to: SVG Repo, www.svgrepo.com, Generator: SVG Repo Mixer Tools -->
<svg fill="#000000" width="800px" height="800px" viewBox="0 0 128 128" data-name="Layer 1" id="Layer_1" xmlns="http://www.w3.org/2000/svg"><title/><path d="M42.22,108.1A4.09,4.09,0,1,0,46.31,104,4.1,4.1,0,0,0,42.22,108.1Zm6.17,0A2.09,2.09,0,1,1,46.31,106,2.09,2.09,0,0,1,48.39,108.1Z"/><path d="M45.62,13.7a1,1,0,0,0,0,2,5.41,5.41,0,1,1-5.41,5.41,1,1,0,0,0-2,0,7.42,7.42,0,1,0,7.41-7.41Z"/><path d="M45.62,24.29a3.18,3.18,0,1,0-3.18-3.18A3.18,3.18,0,0,0,45.62,24.29Zm0-4.36a1.18,1.18,0,1,1-1.18,1.18A1.18,1.18,0,0,1,45.62,19.93Z"/><path d="M76.52,108.1A4.09,4.09,0,1,0,80.61,104,4.09,4.09,0,0,0,76.52,108.1Zm6.17,0A2.09,2.09,0,1,1,80.61,106,2.09,2.09,0,0,1,82.69,108.1Z"/><path d="M8.12,108.1A4.09,4.09,0,1,0,12.21,104,4.09,4.09,0,0,0,8.12,108.1Zm6.17,0A2.09,2.09,0,1,1,12.21,106,2.09,2.09,0,0,1,14.29,108.1Z"/><path d="M64.22,69.1a1,1,0,0,0,0,2h7.2a1,1,0,0,0,0-2Z"/><path d="M63.45,65.25a1,1,0,1,0,0,2h7.2a1,1,0,0,0,0-2Z"/><path d="M62.67,63.39h7.21a1,1,0,0,0,0-2H62.67a1,1,0,0,0,0,2Z"/><path d="M27.7,63.39H55.47a1,1,0,0,0,0-2H27.7a1,1,0,0,0,0,2Z"/><path d="M23.85,72.65h32.4a1,1,0,0,0,1-1.2l-.77-3.86a1,1,0,0,0-1-.8H24.62a1,1,0,0,0-1,.8l-.77,3.86a1,1,0,0,0,.2.83A1,1,0,0,0,23.85,72.65Zm1.59-3.86H54.65L55,70.65h-30Z"/><path d="M114.35,87.15a3.41,3.41,0,0,0-.52-1.9h0a3.46,3.46,0,0,0-3.81-1.5L100.7,68.33a3.37,3.37,0,0,0,.51-1.78,3.46,3.46,0,0,0-6.91,0,4.48,4.48,0,0,0,.06.64l-14.44,9L77.17,59.25a8.14,8.14,0,0,0-8.07-6.86H57.6c-.25-3.67-3-6.79-6.76-8.25v-12H56a1,1,0,0,0,1-1V11.08a1,1,0,0,0-1-1H35.21a1,1,0,0,0-1,1V31.14a1,1,0,0,0,1,1h5.87V44.2c-3.74,1.47-6.38,4.56-6.63,8.19H22.15a8.13,8.13,0,0,0-8.06,6.86L11.22,76.82H7.15A4.18,4.18,0,0,0,3,81v.58a4.18,4.18,0,0,0,4.18,4.18H23.41L11.13,98a1,1,0,0,0-.22.34,9.81,9.81,0,1,0,2.7,0L26.24,85.76h5.19a.66.66,0,0,0,.12.17l12.59,12.6a9.81,9.81,0,1,0,5,.17L61.92,85.93a1,1,0,0,0,.11-.17h4.12a.62.62,0,0,0,.11.17L78.79,98.46a9.82,9.82,0,1,0,2.59-.14A1,1,0,0,0,81.2,98L68.92,85.76H84.1a4.18,4.18,0,0,0,4.18-4.18V81a4.18,4.18,0,0,0-4.18-4.18H82.65L95.29,69a3.42,3.42,0,0,0,3.9.72l9.13,15.11a3.41,3.41,0,0,0,1.14,5.4,10,10,0,0,0-1,11.91,1,1,0,0,0,.63.44.83.83,0,0,0,.22,0,1,1,0,0,0,.53-.15l6.9-4.3,2,3a1,1,0,0,0,.83.44,1,1,0,0,0,.56-.17,1,1,0,0,0,.27-1.38l-1.93-2.91,6.69-4.17a1,1,0,0,0,.32-1.38A10,10,0,0,0,114.35,87.15ZM20,108.1a7.82,7.82,0,1,1-7.82-7.82A7.83,7.83,0,0,1,20,108.1Zm68.4,0a7.82,7.82,0,1,1-7.82-7.82A7.83,7.83,0,0,1,88.43,108.1Zm-52.22-96H55V30.14H36.21Zm6.87,20.06h5.76V43.56a13.33,13.33,0,0,0-5.76,0ZM46,45.26c5.07,0,9.22,3.15,9.58,7.13H36.45C36.81,48.41,41,45.26,46,45.26Zm-30,14.31a6.15,6.15,0,0,1,6.09-5.18H69.1a6.15,6.15,0,0,1,6.09,5.18L78,76.82H18.65l2.58-14.25a1,1,0,1,0-2-.36L16.62,76.82H13.25ZM54.13,108.1a7.82,7.82,0,1,1-7.82-7.82A7.83,7.83,0,0,1,54.13,108.1ZM47,98a1.24,1.24,0,0,0-.17.27h-.14a1.45,1.45,0,0,0-.17-.26L34.2,85.76H59.26ZM86.28,81v.58a2.18,2.18,0,0,1-2.18,2.18H7.15A2.19,2.19,0,0,1,5,81.58V81a2.18,2.18,0,0,1,2.18-2.18H84.1A2.17,2.17,0,0,1,86.28,81Zm10-14.45A1.46,1.46,0,1,1,97.76,68,1.45,1.45,0,0,1,96.3,66.55Zm13.18,20.2a1.43,1.43,0,0,1,.65-.9,1.43,1.43,0,0,1,2,.46,1.42,1.42,0,0,1,.19,1.1,1.46,1.46,0,1,1-2.84-.66Zm.21,13.42a8,8,0,0,1,13.49-8.41Z"/></svg>