<?xml version="1.0" ?><!-- Uploaded to: SVG Repo, www.svgrepo.com, Generator: SVG Repo Mixer Tools -->
<svg width="800px" height="800px" viewBox="0 0 48 48" data-name="Layer 1" id="Layer_1" xmlns="http://www.w3.org/2000/svg"><defs><style>
      .cls-1, .cls-2 {
        fill: none;
        stroke: #353535;
        stroke-linecap: round;
        stroke-width: 2px;
      }

      .cls-1 {
        stroke-linejoin: round;
      }

      .cls-2 {
        stroke-miterlimit: 10;
      }
    </style></defs><title/><line class="cls-1" x1="12.44797" x2="19.95833" y1="31.75863" y2="25.5"/><polyline class="cls-1" points="17.958 39 17.958 47 30.833 47 33.833 44.042 33.833 39"/><line class="cls-1" x1="23.95833" x2="23.95833" y1="12" y2="19"/><path class="cls-1" d="M20,12V3.97916a1.97917,1.97917,0,0,1,3.95833,0"/><path class="cls-1" d="M24,12V2.97916a1.97917,1.97917,0,0,1,3.95833,0"/><path class="cls-1" d="M28,19V2.97916a1.97917,1.97917,0,0,1,3.95833,0V8.58333"/><line class="cls-1" x1="20" x2="20" y1="11.5625" y2="25.5"/><path class="cls-1" d="M36,33v6H17.95833L10,28.54167v-5.0625a1.97917,1.97917,0,0,1,3.95833,0v2.35417"/><path class="cls-1" d="M31.95833,19V5.47916a2.02127,2.02127,0,0,1,4.04167,0V29.25"/><polyline class="cls-2" points="19.958 25.5 27.208 32.75 36 32.75"/><line class="cls-1" x1="20" x2="36" y1="19" y2="19"/><line class="cls-1" x1="20" x2="36" y1="12.5" y2="12.5"/><line class="cls-1" x1="20" x2="36" y1="7.5" y2="7.5"/></svg>